<svg width="302" height="38" viewBox="0 0 302 38" fill="none" xmlns="http://www.w3.org/2000/svg">
  <title>B R E A T H E</title>
  <path fill-rule="evenodd" clip-rule="evenodd" d="M1 1.58778L1.88645 1.48647C3.03077 1.35569 4.42632 1.24237 6.06928 1.14572L6.0704 1.14566C7.75833 1.04828 9.69822 1 11.888 1C16.1151 1 19.5037 1.78218 21.9179 3.48504C24.3925 5.20771 25.656 7.62554 25.656 10.64C25.656 12.6122 25.1418 14.3397 24.059 15.7587C23.3808 16.6473 22.5079 17.4184 21.4588 18.081C22.835 18.785 23.9736 19.6543 24.8482 20.7038C26.1404 22.2544 26.76 24.1717 26.76 26.384C26.76 29.7608 25.4196 32.493 22.7611 34.4792C20.1471 36.4562 16.4076 37.368 11.696 37.368C9.73099 37.368 7.85968 37.3198 6.08237 37.223C4.34122 37.1583 2.92379 37.0445 1.84562 36.876L1 36.7439L1 1.58778ZM18.1649 30.1977C19.4683 29.3636 20.104 28.1984 20.104 26.576C20.104 24.9814 19.4787 23.7854 18.1819 22.8856C16.8482 21.9601 14.8405 21.432 12.032 21.432H7.56L7.56 31.386C8.93859 31.5123 10.4289 31.576 12.032 31.576C14.8146 31.576 16.8174 31.0777 18.1572 30.2027L18.1649 30.1977ZM9.01546 6.79063L8.99701 6.79132C8.4947 6.80992 8.01574 6.83397 7.56 6.8634L7.56 15.88L11.84 15.88C14.2433 15.88 16.0185 15.3921 17.2669 14.5245C18.5293 13.6376 19.096 12.555 19.096 11.216C19.096 9.7154 18.5197 8.66836 17.3547 7.93392C16.1008 7.14341 14.2949 6.696 11.84 6.696C10.8035 6.696 9.86868 6.72743 9.03387 6.78927L9.01546 6.79063Z" fill="white "/>
  <path fill-rule="evenodd" clip-rule="evenodd" d="M66.6809 37.8961L62.0862 27.8615L62.085 27.8591C61.0852 25.7088 59.8729 24.2765 58.4945 23.4495C57.1495 22.6425 55.3855 22.1889 53.145 22.1542L53.145 36.984H46.585L46.585 1.56831L47.4928 1.48426C49.2311 1.3233 50.8605 1.2102 52.3806 1.14533C53.9376 1.04825 55.6193 1 57.425 1C59.5387 1 61.4257 1.23039 63.0717 1.7093C64.7043 2.15252 66.109 2.81137 67.2566 3.70798C68.3907 4.59395 69.2609 5.65523 69.8449 6.89169C70.46 8.12633 70.761 9.47748 70.761 10.928C70.761 13.4802 69.984 15.6342 68.3642 17.2909C67.259 18.4218 65.8235 19.3207 64.0905 20.0092C64.6689 20.3998 65.2051 20.8789 65.7009 21.4391C66.2303 22.0057 66.7285 22.6793 67.1991 23.4508C67.7104 24.2366 68.2105 25.1742 68.7021 26.2553L68.7034 26.2582L72.7659 35.0245L66.6809 37.8961ZM62.573 8.21492L62.5672 8.21032C61.4643 7.34377 59.7966 6.84 57.425 6.84C56.3464 6.84 55.383 6.85587 54.534 6.88731C54.043 6.9055 53.5801 6.92887 53.145 6.95734V16.312H57.425C59.5841 16.312 61.2356 15.8328 62.4615 14.961C63.612 14.1429 64.201 12.9891 64.201 11.36C64.201 10.0919 63.6909 9.06662 62.579 8.21943L62.573 8.21492Z" fill="white "/>
  <path d="M114.721 1.384L92.5606 1.384V36.984H114.721V31.048L99.1206 31.048V21.384L112.561 21.384V15.544L99.1206 15.544V7.32L114.721 7.32V1.384Z" fill="white "/>
  <path d="M183.109 1.384L210.309 1.384V7.416L199.989 7.416V36.984H193.429V7.416L183.109 7.416V1.384Z" fill="white "/>
  <path d="M229.456 36.984H236.016V21.672L250.576 21.672V36.984H257.136V1.384L250.576 1.384V15.736L236.016 15.736V1.384L229.456 1.384V36.984Z" fill="white "/>
  <path d="M279.119 1.384L301.279 1.384V7.32L285.679 7.32V15.544L299.119 15.544V21.384H285.679V31.048H301.279V36.984H279.119V1.384Z" fill="white "/>
  <path fill-rule="evenodd" clip-rule="evenodd" d="M148.175 1.384L139.797 22.024H133.236L131.009 27.864L137.426 27.864L134.394 35.3333L140.144 37.6758L144.009 27.864H158.197L162.06 37.769L168.099 35.3393L165.109 27.864H171.197L168.929 22.024H162.773L154.517 1.384L148.175 1.384ZM155.929 22.024H146.236L151.101 9.63985L155.929 22.024Z" fill="white "/>
</svg>
