<svg width="18" height="18" viewBox="0 0 18 18" fill="none" xmlns="http://www.w3.org/2000/svg">
  <title>Mute</title>
  <path d="M0.63 0.634999C0.24 1.025 0.24 1.655 0.63 2.045L4.29 5.705L4 6.005H1C0.45 6.005 0 6.455 0 7.005V11.005C0 11.555 0.45 12.005 1 12.005H4L7.29 15.295C7.92 15.925 9 15.475 9 14.585V10.415L13.18 14.595C12.69 14.965 12.16 15.275 11.58 15.505C11.22 15.655 11 16.035 11 16.425C11 17.145 11.73 17.605 12.39 17.335C13.19 17.005 13.94 16.565 14.61 16.025L15.95 17.365C16.34 17.755 16.97 17.755 17.36 17.365C17.75 16.975 17.75 16.345 17.36 15.955L2.05 0.634999C1.66 0.244999 1.03 0.244999 0.63 0.634999ZM16 9.005C16 9.825 15.85 10.615 15.59 11.345L17.12 12.875C17.68 11.705 18 10.395 18 9.005C18 5.175 15.6 1.895 12.22 0.604999C11.63 0.374999 11 0.834999 11 1.465V1.655C11 2.035 11.25 2.365 11.61 2.505C14.18 3.545 16 6.065 16 9.005ZM7.29 2.715L7.12 2.885L9 4.765V3.415C9 2.525 7.92 2.085 7.29 2.715ZM13.5 9.005C13.5 7.235 12.48 5.715 11 4.975V6.765L13.48 9.245C13.49 9.165 13.5 9.085 13.5 9.005Z" fill="white" />
</svg>
