<svg width="18" height="18" viewBox="0 0 18 18" fill="none" xmlns="http://www.w3.org/2000/svg">
  <title>Unmute</title>
  <path d="M0 7.00181V11.0018C0 11.5518 0.45 12.0018 1 12.0018H4L7.29 15.2918C7.92 15.9218 9 15.4718 9 14.5818V3.41181C9 2.52181 7.92 2.07181 7.29 2.70181L4 6.00181H1C0.45 6.00181 0 6.45181 0 7.00181ZM13.5 9.00181C13.5 7.23181 12.48 5.71181 11 4.97181V13.0218C12.48 12.2918 13.5 10.7718 13.5 9.00181ZM11 1.45181V1.65181C11 2.03181 11.25 2.36181 11.6 2.50181C14.18 3.53181 16 6.06181 16 9.00181C16 11.9418 14.18 14.4718 11.6 15.5018C11.24 15.6418 11 15.9718 11 16.3518V16.5518C11 17.1818 11.63 17.6218 12.21 17.4018C15.6 16.1118 18 12.8418 18 9.00181C18 5.16181 15.6 1.89181 12.21 0.601809C11.63 0.371809 11 0.821809 11 1.45181V1.45181Z" fill="white" />
</svg>
